HIERARCHY
ROOT Hips
{
	OFFSET 0.000000 83.214638 0.000000
	CHANNELS 6 Xposition Yposition Zposition Xrotation Yrotation Zrotation
	JOINT Pelvis
	{
		OFFSET 0.000000 0.000000 0.000000
		CHANNELS 3 Xrotation Yrotation Zrotation
		JOINT LeftUpLeg
		{
			OFFSET 8.479700 -4.795502 -0.379100
			CHANNELS 3 Xrotation Yrotation Zrotation
			JOINT LeftLeg
			{
				OFFSET 0.024144 -32.555107 0.112900
				CHANNELS 3 Xrotation Yrotation Zrotation
				JOINT LeftFoot
				{
					OFFSET -0.024144 -32.638630 -3.012600
					CHANNELS 3 Xrotation Yrotation Zrotation
					JOINT LeftToeBase
					{
						OFFSET 0.970200 -13.225400 11.864200
						CHANNELS 3 Xrotation Yrotation Zrotation
						End Site
						{
							OFFSET 0.000000 12.319262 0.000000
						}
					}
					JOINT LFootTongue
					{
						OFFSET 1.142400 -1.059800 6.665200
						CHANNELS 3 Xrotation Yrotation Zrotation
						End Site
						{
							OFFSET 0.000000 12.319262 0.000000
						}
					}
				}
				JOINT LeftPantLeg
				{
					OFFSET 0.918482 -16.533964 -2.284700
					CHANNELS 3 Xrotation Yrotation Zrotation
					End Site
					{
						OFFSET 0.350399 24.744368 0.000000
					}
				}
			}
		}
		JOINT RightUpLeg
		{
			OFFSET -8.479700 -4.795502 -0.379100
			CHANNELS 3 Xrotation Yrotation Zrotation
			JOINT RightLeg
			{
				OFFSET -0.023144 -32.555092 0.112900
				CHANNELS 3 Xrotation Yrotation Zrotation
				JOINT RightFoot
				{
					OFFSET 0.023144 -32.638641 -3.012700
					CHANNELS 3 Xrotation Yrotation Zrotation
					JOINT RightToeBase
					{
						OFFSET -0.970200 -13.225400 11.864200
						CHANNELS 3 Xrotation Yrotation Zrotation
						End Site
						{
							OFFSET 0.000000 12.319244 0.000000
						}
					}
					JOINT RFootTongue
					{
						OFFSET -1.142200 -1.059800 6.665200
						CHANNELS 3 Xrotation Yrotation Zrotation
						End Site
						{
							OFFSET 0.000000 12.319243 0.000000
						}
					}
				}
				JOINT RightPantLeg
				{
					OFFSET -0.919482 -16.533978 -2.284800
					CHANNELS 3 Xrotation Yrotation Zrotation
					End Site
					{
						OFFSET -0.350400 24.744419 0.000000
					}
				}
			}
		}
	}
	JOINT Spine
	{
		OFFSET 0.000000 7.722000 1.166200
		CHANNELS 3 Xrotation Yrotation Zrotation
		JOINT Spine1
		{
			OFFSET 0.000000 12.024101 0.248800
			CHANNELS 3 Xrotation Yrotation Zrotation
			JOINT Spine2
			{
				OFFSET 0.000000 11.502998 -0.491200
				CHANNELS 3 Xrotation Yrotation Zrotation
				JOINT Neck
				{
					OFFSET 0.000000 18.430702 -3.123100
					CHANNELS 3 Xrotation Yrotation Zrotation
					JOINT Head
					{
						OFFSET 0.000000 9.051102 1.034000
						CHANNELS 3 Xrotation Yrotation Zrotation
						JOINT HairB
						{
							OFFSET 0.208400 24.786102 24.822300
							CHANNELS 3 Xrotation Yrotation Zrotation
							End Site
							{
								OFFSET 0.000000 32.263779 0.000000
							}
						}
						JOINT HairA
						{
							OFFSET -7.081100 24.428299 23.196600
							CHANNELS 3 Xrotation Yrotation Zrotation
							End Site
							{
								OFFSET 0.000000 32.263779 0.000000
							}
						}
						JOINT Hat
						{
							OFFSET 16.728800 15.048294 -15.439601
							CHANNELS 3 Xrotation Yrotation Zrotation
							End Site
							{
								OFFSET 0.000000 32.263779 0.000000
							}
						}
					}
				}
				JOINT LeftShoulder
				{
					OFFSET 6.197800 13.665199 -4.064700
					CHANNELS 3 Xrotation Yrotation Zrotation
					JOINT LeftArm
					{
						OFFSET 7.778100 -0.187103 -1.709300
						CHANNELS 3 Xrotation Yrotation Zrotation
						JOINT LeftForeArm
						{
							OFFSET 22.049376 0.000000 0.000000
							CHANNELS 3 Xrotation Yrotation Zrotation
							JOINT LeftHand
							{
								OFFSET 23.009392 0.000000 0.000000
								CHANNELS 3 Xrotation Yrotation Zrotation
								JOINT LeftHandThumb1
								{
									OFFSET 3.507191 -2.063065 3.133727
									CHANNELS 3 Xrotation Yrotation Zrotation
									JOINT LeftHandThumb2
									{
										OFFSET 3.101337 -1.790558 1.790558
										CHANNELS 3 Xrotation Yrotation Zrotation
										JOINT LeftHandThumb3
										{
											OFFSET 3.058640 -1.765907 1.765906
											CHANNELS 3 Xrotation Yrotation Zrotation
											End Site
											{
												OFFSET -0.415260 3.926476 -0.049563
											}
										}
									}
								}
								JOINT LeftHandIndex1
								{
									OFFSET 11.334419 -0.901459 3.706815
									CHANNELS 3 Xrotation Yrotation Zrotation
									JOINT LeftHandIndex2
									{
										OFFSET 3.283112 0.000000 0.000000
										CHANNELS 3 Xrotation Yrotation Zrotation
										JOINT LeftHandIndex3
										{
											OFFSET 3.323853 0.000000 0.000000
											CHANNELS 3 Xrotation Yrotation Zrotation
											End Site
											{
												OFFSET -1.135597 3.097809 0.402452
											}
										}
									}
								}
								JOINT LeftHandMiddle1
								{
									OFFSET 11.335861 0.000000 0.000000
									CHANNELS 3 Xrotation Yrotation Zrotation
									JOINT LeftHandMiddle2
									{
										OFFSET 3.410492 0.000000 0.000000
										CHANNELS 3 Xrotation Yrotation Zrotation
										JOINT LeftHandMiddle3
										{
											OFFSET 3.312172 0.000000 0.000000
											CHANNELS 3 Xrotation Yrotation Zrotation
											End Site
											{
												OFFSET -1.150200 3.080154 0.400270
											}
										}
									}
								}
								JOINT LeftHandRing1
								{
									OFFSET 11.514786 -0.013176 -3.003090
									CHANNELS 3 Xrotation Yrotation Zrotation
									JOINT LeftHandRing2
									{
										OFFSET 3.053307 0.000000 0.000000
										CHANNELS 3 Xrotation Yrotation Zrotation
										JOINT LeftHandRing3
										{
											OFFSET 3.295807 0.000000 0.000000
											CHANNELS 3 Xrotation Yrotation Zrotation
											End Site
											{
												OFFSET -1.281006 3.013344 0.375733
											}
										}
									}
								}
								JOINT LeftHandPinky1
								{
									OFFSET 10.518692 -0.960396 -5.730441
									CHANNELS 3 Xrotation Yrotation Zrotation
									JOINT LeftHandPinky2
									{
										OFFSET 2.861649 0.000000 0.000000
										CHANNELS 3 Xrotation Yrotation Zrotation
										JOINT LeftHandPinky3
										{
											OFFSET 2.863380 0.000000 0.000000
											CHANNELS 3 Xrotation Yrotation Zrotation
											End Site
											{
												OFFSET -0.843597 2.711159 0.369971
											}
										}
									}
								}
							}
							JOINT LSleeve
							{
								OFFSET 6.676277 -0.344902 -1.011730
								CHANNELS 3 Xrotation Yrotation Zrotation
								End Site
								{
									OFFSET 0.000000 14.885353 0.000000
								}
							}
						}
					}
				}
				JOINT RightShoulder
				{
					OFFSET -6.197800 13.665199 -4.064700
					CHANNELS 3 Xrotation Yrotation Zrotation
					JOINT RightArm
					{
						OFFSET -7.778100 -0.187103 -1.709300
						CHANNELS 3 Xrotation Yrotation Zrotation
						JOINT RightForeArm
						{
							OFFSET -22.049376 0.000000 0.000000
							CHANNELS 3 Xrotation Yrotation Zrotation
							JOINT RightHand
							{
								OFFSET -23.009392 0.000000 0.000000
								CHANNELS 3 Xrotation Yrotation Zrotation
								JOINT RightHandThumb1
								{
									OFFSET -3.507191 -2.063065 3.133727
									CHANNELS 3 Xrotation Yrotation Zrotation
									JOINT RightHandThumb2
									{
										OFFSET -3.101337 -1.790558 1.790558
										CHANNELS 3 Xrotation Yrotation Zrotation
										JOINT RightHandThumb3
										{
											OFFSET -3.058640 -1.765907 1.765906
											CHANNELS 3 Xrotation Yrotation Zrotation
											End Site
											{
												OFFSET 0.415260 3.926476 -0.049563
											}
										}
									}
								}
								JOINT RightHandIndex1
								{
									OFFSET -11.334419 -0.901459 3.706815
									CHANNELS 3 Xrotation Yrotation Zrotation
									JOINT RightHandIndex2
									{
										OFFSET -3.283112 0.000000 0.000000
										CHANNELS 3 Xrotation Yrotation Zrotation
										JOINT RightHandIndex3
										{
											OFFSET -3.323853 0.000000 0.000000
											CHANNELS 3 Xrotation Yrotation Zrotation
											End Site
											{
												OFFSET 1.135597 3.097809 0.402452
											}
										}
									}
								}
								JOINT RightHandMiddle1
								{
									OFFSET -11.335861 0.000000 0.000000
									CHANNELS 3 Xrotation Yrotation Zrotation
									JOINT RightHandMiddle2
									{
										OFFSET -3.410492 0.000000 0.000000
										CHANNELS 3 Xrotation Yrotation Zrotation
										JOINT RightHandMiddle3
										{
											OFFSET -3.312172 0.000000 0.000000
											CHANNELS 3 Xrotation Yrotation Zrotation
											End Site
											{
												OFFSET 1.150200 3.080154 0.400270
											}
										}
									}
								}
								JOINT RightHandRing1
								{
									OFFSET -11.514786 -0.013176 -3.003090
									CHANNELS 3 Xrotation Yrotation Zrotation
									JOINT RightHandRing2
									{
										OFFSET -3.053307 0.000000 0.000000
										CHANNELS 3 Xrotation Yrotation Zrotation
										JOINT RightHandRing3
										{
											OFFSET -3.295807 0.000000 0.000000
											CHANNELS 3 Xrotation Yrotation Zrotation
											End Site
											{
												OFFSET 1.281006 3.013344 0.375733
											}
										}
									}
								}
								JOINT RightHandPinky1
								{
									OFFSET -10.518692 -0.960396 -5.730441
									CHANNELS 3 Xrotation Yrotation Zrotation
									JOINT RightHandPinky2
									{
										OFFSET -2.861649 0.000000 0.000000
										CHANNELS 3 Xrotation Yrotation Zrotation
										JOINT RightHandPinky3
										{
											OFFSET -2.863380 0.000000 0.000000
											CHANNELS 3 Xrotation Yrotation Zrotation
											End Site
											{
												OFFSET 0.843597 2.711159 0.369971
											}
										}
									}
								}
							}
							JOINT RSleeve
							{
								OFFSET -6.676277 -0.344902 -1.011730
								CHANNELS 3 Xrotation Yrotation Zrotation
								End Site
								{
									OFFSET 0.000000 14.885353 0.000000
								}
							}
						}
					}
				}
				JOINT Backpack
				{
					OFFSET 0.000000 -2.471497 36.677502
					CHANNELS 3 Xrotation Yrotation Zrotation
					End Site
					{
						OFFSET 0.000000 20.427315 0.000000
					}
				}
				JOINT Hood
				{
					OFFSET 0.000000 18.754097 -10.431000
					CHANNELS 3 Xrotation Yrotation Zrotation
					JOINT Hood1
					{
						OFFSET 0.000000 -5.011002 -7.685901
						CHANNELS 3 Xrotation Yrotation Zrotation
						End Site
						{
							OFFSET 0.000000 9.175140 0.000000
						}
					}
				}
				JOINT LHoodieString
				{
					OFFSET 5.250500 16.397697 3.089900
					CHANNELS 3 Xrotation Yrotation Zrotation
					JOINT LHoodieString1
					{
						OFFSET 0.257700 -6.364304 3.694600
						CHANNELS 3 Xrotation Yrotation Zrotation
						JOINT LHoodieString2
						{
							OFFSET 0.000000 -9.643799 2.679100
							CHANNELS 3 Xrotation Yrotation Zrotation
							End Site
							{
								OFFSET 0.000000 10.009018 0.000000
							}
						}
					}
				}
				JOINT RHoodieString
				{
					OFFSET -5.250500 16.397697 3.089900
					CHANNELS 3 Xrotation Yrotation Zrotation
					JOINT RHoodieString1
					{
						OFFSET -0.257700 -6.364304 3.694600
						CHANNELS 3 Xrotation Yrotation Zrotation
						JOINT RHoodieString2
						{
							OFFSET 0.000000 -9.643799 2.679100
							CHANNELS 3 Xrotation Yrotation Zrotation
							End Site
							{
								OFFSET 0.000000 10.009018 0.000000
							}
						}
					}
				}
			}
			JOINT LBackpack_Strap
			{
				OFFSET 15.223200 -7.719803 -6.610900
				CHANNELS 3 Xrotation Yrotation Zrotation
				End Site
				{
					OFFSET 0.000000 16.040596 0.000000
				}
			}
			JOINT RBackpack_Strap
			{
				OFFSET -15.223000 -7.719803 -6.610900
				CHANNELS 3 Xrotation Yrotation Zrotation
				End Site
				{
					OFFSET 0.000000 16.040596 0.000000
				}
			}
		}
	}
	JOINT BoyFacialAnim_Joint
	{
		OFFSET 1.000000 -82.208099 -1.550900
		CHANNELS 3 Xrotation Yrotation Zrotation
		End Site
		{
			OFFSET 0.000000 30.012791 0.000000
		}
	}
}
MOTION
Frames: 4
Frame Time: 0.016667
11.438704 53.024872 -31.358143 49.393346 -31.872340 16.532316 -0.000000 0.000002 -0.000000 -66.921538 -5.411785 0.840783 104.665751 -4.396177 0.450108 8.969964 -6.895334 -9.822183 -0.000001 -0.000001 -0.000000 -0.000001 -0.000001 0.000000 -0.000001 0.000001 -0.000002 -103.199370 -9.626658 -18.754760 107.709699 -11.355748 6.469022 -29.771169 -10.096073 6.523962 0.000001 0.000000 -0.000000 0.000001 0.000000 -0.000000 -0.000001 -0.000000 -0.000000 30.543192 10.767330 3.040507 6.860045 2.066867 1.129952 6.835854 2.135325 1.146299 -7.949807 -4.235516 1.372940 -21.131430 -17.422419 -7.101417 -0.000001 -0.000001 0.000001 -0.000001 -0.000001 0.000001 -0.000001 -0.000001 0.000001 5.673064 -23.734084 -9.066839 -27.862351 -10.438775 -41.186461 0.000008 -38.893471 -0.000004 -42.320296 -3.346973 4.206364 -1.538530 3.693644 6.118941 3.939065 7.948699 0.746779 -0.000002 0.000001 0.000002 0.298621 2.009596 -16.903103 0.539679 2.676799 -22.793540 0.000003 0.000001 -0.000002 0.298068 2.007740 -16.887103 0.540423 2.678581 -22.809560 0.000002 0.000001 -0.000001 0.298632 2.009584 -16.903106 0.539668 2.676797 -22.793547 0.000000 0.000000 -0.000002 1.465415 5.893253 -16.473112 0.545005 -1.382178 -23.265267 0.000001 -0.000002 0.000001 -0.000001 0.000001 0.000000 -0.454815 29.350989 14.140360 -42.011930 48.862740 12.344899 0.000001 14.620232 0.000003 -4.045420 -7.800925 -22.899247 -1.848193 -3.584409 -6.569227 4.637200 -8.634127 -0.225395 -0.000002 -0.000000 -0.000005 0.480695 -2.544885 21.389422 1.003306 -3.603121 31.111290 -0.000001 0.000002 0.000004 0.480695 -2.544883 21.389417 1.003305 -3.603119 31.111297 0.000001 -0.000000 -0.000002 0.480697 -2.544877 21.389408 1.003303 -3.603116 31.111317 -0.000001 -0.000000 0.000000 0.480695 -2.544874 21.389420 1.003309 -3.603123 31.111300 0.000003 -0.000000 -0.000002 -0.000000 -0.000002 -0.000000 -0.000000 0.000000 -0.000003 -0.000000 0.000000 -0.000003 -0.000000 0.000000 -0.000003 -0.000000 0.000000 -0.000003 -0.000000 0.000000 -0.000003 0.000000 0.000000 -0.000003 -0.000000 0.000000 -0.000003 -0.000000 0.000000 -0.000003 0.000000 0.000000 -0.000003 -0.000000 -0.000000 -0.000001 -0.000000 -0.000000 -0.000001 -0.000000 0.000002 -0.000000 
11.517750 53.233982 -31.284485 48.978918 -32.435646 16.539407 0.000001 -0.000003 0.000002 -68.351697 -5.910978 1.452538 105.670669 -4.192111 0.063356 10.006097 -6.472717 -9.460045 -0.000000 0.000000 0.000001 -0.000000 0.000000 0.000000 -0.000001 0.000001 -0.000004 -102.360931 -9.658470 -18.502156 107.192873 -11.305949 6.448372 -29.626396 -10.026892 6.691576 -0.000000 0.000000 -0.000000 -0.000000 0.000000 -0.000000 -0.000000 -0.000002 -0.000001 30.585970 10.741955 2.753611 6.860446 2.055451 1.057258 6.836467 2.123751 1.073445 -7.756132 -4.044932 1.169384 -20.994364 -16.671645 -7.271162 0.000003 0.000001 -0.000002 0.000003 0.000001 -0.000002 0.000003 0.000001 -0.000002 5.677198 -23.780716 -9.018295 -27.386373 -9.567762 -41.312345 -0.000000 -39.455175 -0.000002 -42.046935 -3.027419 4.146420 -1.537392 3.696278 6.101105 3.939060 7.948697 0.746794 -0.000002 -0.000002 0.000001 0.298626 2.009593 -16.903096 0.539689 2.676801 -22.793548 -0.000005 -0.000000 -0.000002 0.298063 2.007745 -16.887098 0.540430 2.678574 -22.809594 -0.000002 -0.000000 -0.000003 0.298631 2.009584 -16.903111 0.539675 2.676807 -22.793540 -0.000002 0.000000 -0.000000 1.465431 5.893261 -16.473124 0.545013 -1.382183 -23.265308 -0.000001 -0.000002 -0.000001 -0.000002 0.000001 0.000000 -0.367078 28.852369 13.849369 -40.871596 48.371509 12.524499 -0.000005 16.563849 0.000020 -4.109964 -7.929979 -21.633361 -1.847393 -3.586397 -6.556338 4.637202 -8.634124 -0.225386 0.000001 -0.000001 -0.000003 0.480690 -2.544881 21.389410 1.003316 -3.603116 31.111317 -0.000003 0.000001 0.000002 0.480690 -2.544877 21.389417 1.003311 -3.603116 31.111303 0.000002 -0.000001 0.000001 0.480692 -2.544871 21.389408 1.003306 -3.603119 31.111317 -0.000002 -0.000001 -0.000002 0.480688 -2.544871 21.389417 1.003311 -3.603122 31.111300 0.000000 -0.000000 -0.000002 0.000002 -0.000001 -0.000001 -0.000000 0.000000 -0.000001 -0.000000 0.000000 -0.000001 -0.000000 0.000000 -0.000001 -0.000000 0.000000 -0.000001 -0.000000 0.000000 -0.000001 0.000000 0.000000 -0.000001 -0.000000 0.000000 -0.000001 -0.000000 0.000000 -0.000001 0.000000 0.000000 -0.000001 -0.000000 0.000001 -0.000002 -0.000000 0.000001 -0.000002 0.000001 -0.000003 0.000002 
11.583885 53.457047 -31.168842 48.514543 -32.999639 16.552924 -0.000001 0.000000 -0.000000 -69.741928 -6.393871 1.896619 106.584801 -4.323796 -0.043423 11.036495 -5.746273 -9.650770 -0.000001 0.000001 -0.000000 -0.000001 0.000001 -0.000002 0.000001 -0.000002 0.000001 -101.411500 -9.648510 -18.278215 106.658574 -11.244292 6.425730 -29.541070 -9.942891 6.896629 0.000001 0.000000 -0.000000 0.000001 0.000000 -0.000000 -0.000003 0.000001 0.000000 30.693487 10.738291 2.420735 6.900534 2.048713 0.955047 6.876926 2.117281 0.970882 -7.571700 -3.834396 0.935136 -20.880419 -15.870593 -7.421786 -0.000002 0.000000 -0.000001 -0.000002 0.000000 -0.000001 -0.000002 0.000000 -0.000001 5.697508 -23.899185 -8.949578 -27.065934 -8.692579 -41.259837 0.000024 -40.071589 0.000017 -41.576488 -2.697401 3.764276 -1.540044 3.690180 6.142356 3.939070 7.948709 0.746816 0.000000 0.000000 -0.000000 0.298616 2.009579 -16.903115 0.539684 2.676815 -22.793545 -0.000002 -0.000001 -0.000000 0.298067 2.007736 -16.887107 0.540428 2.678586 -22.809564 -0.000002 0.000000 -0.000003 0.298621 2.009575 -16.903108 0.539676 2.676811 -22.793555 -0.000000 -0.000001 0.000001 1.465414 5.893255 -16.473115 0.545017 -1.382176 -23.265310 -0.000000 0.000000 -0.000002 -0.000001 0.000001 -0.000000 -0.244508 28.311462 13.397238 -39.815891 48.075260 12.700983 0.000004 18.268890 0.000001 -4.377015 -7.996914 -20.176833 -1.846500 -3.588584 -6.542150 4.637201 -8.634128 -0.225414 0.000000 0.000000 -0.000002 0.480690 -2.544880 21.389432 1.003315 -3.603116 31.111283 -0.000000 -0.000000 0.000004 0.480686 -2.544877 21.389426 1.003314 -3.603119 31.111293 0.000001 -0.000001 -0.000000 0.480691 -2.544872 21.389422 1.003303 -3.603119 31.111314 -0.000001 -0.000001 0.000000 0.480691 -2.544871 21.389424 1.003316 -3.603121 31.111283 -0.000000 -0.000002 0.000002 0.000000 0.000000 -0.000001 0.000000 0.000000 -0.000003 0.000000 0.000000 -0.000003 0.000000 0.000000 -0.000003 0.000000 0.000000 -0.000003 0.000000 0.000000 -0.000005 0.000001 0.000000 -0.000003 0.000000 0.000000 -0.000003 0.000000 0.000000 -0.000005 0.000001 0.000000 -0.000003 -0.000000 -0.000000 0.000000 -0.000000 -0.000000 0.000000 -0.000001 0.000000 -0.000000 
11.631855 53.714127 -31.011662 47.961913 -33.578733 16.594020 -0.000003 -0.000001 0.000001 -70.985890 -6.883816 2.202007 107.339585 -4.547506 0.015796 11.915303 -5.312453 -10.226644 -0.000001 -0.000001 0.000001 -0.000001 -0.000001 -0.000000 -0.000000 -0.000000 0.000002 -100.311047 -9.586359 -18.022955 106.074136 -11.181403 6.368840 -29.524305 -9.902308 7.087516 0.000000 0.000000 0.000000 0.000000 0.000000 0.000000 -0.000000 -0.000001 -0.000000 30.899591 10.736992 2.005170 6.923764 2.044797 0.861484 6.900703 2.113029 0.877188 -7.371933 -3.599999 0.660436 -20.823138 -15.011127 -7.545706 -0.000001 0.000000 -0.000003 -0.000001 0.000000 -0.000003 -0.000001 0.000000 -0.000003 5.758441 -24.143190 -8.911114 -26.806433 -7.789661 -40.855569 -0.000010 -40.789733 -0.000021 -40.997463 -2.407546 3.305820 -1.540042 3.690192 6.142370 3.939057 7.948701 0.746801 -0.000005 0.000001 -0.000003 0.298633 2.009601 -16.903087 0.539665 2.676795 -22.793542 -0.000001 -0.000001 -0.000004 0.298064 2.007755 -16.887069 0.540419 2.678573 -22.809582 -0.000002 -0.000002 -0.000002 0.298638 2.009592 -16.903084 0.539668 2.676795 -22.793555 -0.000001 0.000001 -0.000002 1.465424 5.893266 -16.473095 0.545010 -1.382184 -23.265303 -0.000001 0.000001 -0.000002 -0.000002 0.000000 -0.000000 -0.090566 27.840278 12.771132 -38.951613 47.768765 12.863072 -0.000014 19.980754 0.000030 -4.789536 -8.173844 -18.486406 -1.849254 -3.581787 -6.586132 4.637204 -8.634122 -0.225390 0.000001 -0.000000 0.000001 0.480692 -2.544873 21.389390 1.003316 -3.603119 31.111310 -0.000001 0.000000 0.000002 0.480689 -2.544869 21.389408 1.003308 -3.603124 31.111300 -0.000000 -0.000001 0.000003 0.480693 -2.544861 21.389410 1.003300 -3.603127 31.111303 0.000000 -0.000000 0.000002 0.480692 -2.544860 21.389398 1.003311 -3.603129 31.111297 0.000001 -0.000001 0.000000 -0.000000 -0.000001 -0.000001 -0.000000 0.000000 -0.000002 -0.000000 0.000000 -0.000002 -0.000000 0.000000 -0.000002 -0.000000 0.000000 -0.000002 -0.000000 0.000000 -0.000002 -0.000000 -0.000000 -0.000001 -0.000000 0.000000 -0.000002 -0.000000 0.000000 -0.000002 -0.000000 -0.000000 -0.000001 0.000001 0.000000 -0.000001 0.000001 0.000000 -0.000001 -0.000003 -0.000001 0.000001 
